<mxfile host="Electron" modified="2023-04-16T21:34:57.767Z" agent="Mozilla/5.0 (Windows NT 10.0; Win64; x64) AppleWebKit/537.36 (KHTML, like Gecko) draw.io/21.1.2 Chrome/106.0.5249.199 Electron/21.4.3 Safari/537.36" etag="T3T0uNY-NsrKUyjDIYmk" version="21.1.2" type="device">
  <diagram name="Page-1" id="JKgMQ-LBRfguX-uTW_D8">
    <mxGraphModel dx="1430" dy="837" grid="1" gridSize="10" guides="1" tooltips="1" connect="1" arrows="1" fold="1" page="1" pageScale="1" pageWidth="827" pageHeight="1169" math="0" shadow="0">
      <root>
        <mxCell id="0" />
        <mxCell id="1" parent="0" />
        <mxCell id="WVxVEHhtkP9Tz_GykqHv-21" value="" style="group" vertex="1" connectable="0" parent="1">
          <mxGeometry x="50" y="350" width="291" height="200" as="geometry" />
        </mxCell>
        <mxCell id="WVxVEHhtkP9Tz_GykqHv-22" value="" style="group" vertex="1" connectable="0" parent="WVxVEHhtkP9Tz_GykqHv-21">
          <mxGeometry width="291" height="200" as="geometry" />
        </mxCell>
        <mxCell id="WVxVEHhtkP9Tz_GykqHv-23" value="" style="rounded=0;whiteSpace=wrap;html=1;fillColor=none;" vertex="1" parent="WVxVEHhtkP9Tz_GykqHv-22">
          <mxGeometry width="291" height="120" as="geometry" />
        </mxCell>
        <mxCell id="WVxVEHhtkP9Tz_GykqHv-24" value="&lt;b&gt;Features Directory&lt;/b&gt;" style="rounded=0;whiteSpace=wrap;html=1;fillColor=none;" vertex="1" parent="WVxVEHhtkP9Tz_GykqHv-22">
          <mxGeometry width="120" height="30" as="geometry" />
        </mxCell>
        <mxCell id="WVxVEHhtkP9Tz_GykqHv-29" value="Feature Module 1" style="rounded=0;whiteSpace=wrap;html=1;" vertex="1" parent="WVxVEHhtkP9Tz_GykqHv-22">
          <mxGeometry x="10" y="40" width="120" height="60" as="geometry" />
        </mxCell>
        <mxCell id="WVxVEHhtkP9Tz_GykqHv-30" value="Feature Module 2" style="rounded=0;whiteSpace=wrap;html=1;" vertex="1" parent="WVxVEHhtkP9Tz_GykqHv-22">
          <mxGeometry x="150" y="40" width="120" height="60" as="geometry" />
        </mxCell>
        <mxCell id="WVxVEHhtkP9Tz_GykqHv-1" value="" style="rounded=0;whiteSpace=wrap;html=1;fillColor=none;" vertex="1" parent="1">
          <mxGeometry x="268" y="120" width="291" height="180" as="geometry" />
        </mxCell>
        <mxCell id="WVxVEHhtkP9Tz_GykqHv-2" value="&lt;b&gt;Core Directory&lt;/b&gt;" style="rounded=0;whiteSpace=wrap;html=1;fillColor=none;" vertex="1" parent="1">
          <mxGeometry x="268" y="120" width="120" height="30" as="geometry" />
        </mxCell>
        <mxCell id="WVxVEHhtkP9Tz_GykqHv-33" value="API Client Module" style="rounded=0;whiteSpace=wrap;html=1;" vertex="1" parent="1">
          <mxGeometry x="280" y="160" width="120" height="60" as="geometry" />
        </mxCell>
        <mxCell id="WVxVEHhtkP9Tz_GykqHv-34" value="Pipes Module" style="rounded=0;whiteSpace=wrap;html=1;" vertex="1" parent="1">
          <mxGeometry x="420" y="160" width="120" height="60" as="geometry" />
        </mxCell>
        <mxCell id="WVxVEHhtkP9Tz_GykqHv-35" value="Services Module" style="rounded=0;whiteSpace=wrap;html=1;" vertex="1" parent="1">
          <mxGeometry x="280" y="230" width="120" height="60" as="geometry" />
        </mxCell>
        <mxCell id="WVxVEHhtkP9Tz_GykqHv-27" value="" style="rounded=0;whiteSpace=wrap;html=1;fillColor=none;" vertex="1" parent="1">
          <mxGeometry x="470" y="350" width="291" height="120" as="geometry" />
        </mxCell>
        <mxCell id="WVxVEHhtkP9Tz_GykqHv-28" value="&lt;b&gt;Shared Directory&lt;/b&gt;" style="rounded=0;whiteSpace=wrap;html=1;fillColor=none;" vertex="1" parent="1">
          <mxGeometry x="470" y="350" width="120" height="30" as="geometry" />
        </mxCell>
        <mxCell id="WVxVEHhtkP9Tz_GykqHv-31" value="Shared Module 1" style="rounded=0;whiteSpace=wrap;html=1;" vertex="1" parent="1">
          <mxGeometry x="480" y="390" width="120" height="60" as="geometry" />
        </mxCell>
        <mxCell id="WVxVEHhtkP9Tz_GykqHv-32" value="Shared Module 2" style="rounded=0;whiteSpace=wrap;html=1;" vertex="1" parent="1">
          <mxGeometry x="620" y="390" width="120" height="60" as="geometry" />
        </mxCell>
        <mxCell id="WVxVEHhtkP9Tz_GykqHv-37" value="" style="rounded=0;whiteSpace=wrap;html=1;fillColor=none;" vertex="1" parent="1">
          <mxGeometry x="470" y="350" width="291" height="120" as="geometry" />
        </mxCell>
        <mxCell id="WVxVEHhtkP9Tz_GykqHv-38" value="&lt;b&gt;Shared Directory&lt;/b&gt;" style="rounded=0;whiteSpace=wrap;html=1;fillColor=none;" vertex="1" parent="1">
          <mxGeometry x="470" y="350" width="120" height="30" as="geometry" />
        </mxCell>
        <mxCell id="WVxVEHhtkP9Tz_GykqHv-39" value="" style="rounded=0;whiteSpace=wrap;html=1;fillColor=none;" vertex="1" parent="1">
          <mxGeometry x="260" y="525" width="291" height="120" as="geometry" />
        </mxCell>
        <mxCell id="WVxVEHhtkP9Tz_GykqHv-40" value="&lt;b&gt;Pages Directory&lt;/b&gt;" style="rounded=0;whiteSpace=wrap;html=1;fillColor=none;" vertex="1" parent="1">
          <mxGeometry x="260" y="525" width="120" height="30" as="geometry" />
        </mxCell>
        <mxCell id="WVxVEHhtkP9Tz_GykqHv-41" value="Home Page Module" style="rounded=0;whiteSpace=wrap;html=1;" vertex="1" parent="1">
          <mxGeometry x="268" y="565" width="120" height="60" as="geometry" />
        </mxCell>
        <mxCell id="WVxVEHhtkP9Tz_GykqHv-42" value="Admin Page Module" style="rounded=0;whiteSpace=wrap;html=1;" vertex="1" parent="1">
          <mxGeometry x="414" y="565" width="120" height="60" as="geometry" />
        </mxCell>
        <mxCell id="WVxVEHhtkP9Tz_GykqHv-45" value="" style="endArrow=classic;html=1;rounded=0;entryX=1;entryY=1;entryDx=0;entryDy=0;" edge="1" parent="1" target="WVxVEHhtkP9Tz_GykqHv-23">
          <mxGeometry width="50" height="50" relative="1" as="geometry">
            <mxPoint x="400" y="525" as="sourcePoint" />
            <mxPoint x="450" y="475" as="targetPoint" />
          </mxGeometry>
        </mxCell>
        <mxCell id="WVxVEHhtkP9Tz_GykqHv-51" value="Uses" style="edgeLabel;html=1;align=center;verticalAlign=middle;resizable=0;points=[];" vertex="1" connectable="0" parent="WVxVEHhtkP9Tz_GykqHv-45">
          <mxGeometry x="0.3108" y="1" relative="1" as="geometry">
            <mxPoint as="offset" />
          </mxGeometry>
        </mxCell>
        <mxCell id="WVxVEHhtkP9Tz_GykqHv-46" value="" style="endArrow=classic;html=1;rounded=0;exitX=0.517;exitY=0.001;exitDx=0;exitDy=0;entryX=0;entryY=1;entryDx=0;entryDy=0;exitPerimeter=0;" edge="1" parent="1" source="WVxVEHhtkP9Tz_GykqHv-39" target="WVxVEHhtkP9Tz_GykqHv-37">
          <mxGeometry width="50" height="50" relative="1" as="geometry">
            <mxPoint x="410" y="490" as="sourcePoint" />
            <mxPoint x="460" y="440" as="targetPoint" />
          </mxGeometry>
        </mxCell>
        <mxCell id="WVxVEHhtkP9Tz_GykqHv-52" value="Uses" style="edgeLabel;html=1;align=center;verticalAlign=middle;resizable=0;points=[];" vertex="1" connectable="0" parent="WVxVEHhtkP9Tz_GykqHv-46">
          <mxGeometry x="0.2621" relative="1" as="geometry">
            <mxPoint as="offset" />
          </mxGeometry>
        </mxCell>
        <mxCell id="WVxVEHhtkP9Tz_GykqHv-47" value="" style="endArrow=classic;html=1;rounded=0;exitX=1;exitY=0.5;exitDx=0;exitDy=0;entryX=0;entryY=0.5;entryDx=0;entryDy=0;" edge="1" parent="1" source="WVxVEHhtkP9Tz_GykqHv-23" target="WVxVEHhtkP9Tz_GykqHv-37">
          <mxGeometry width="50" height="50" relative="1" as="geometry">
            <mxPoint x="430" y="390" as="sourcePoint" />
            <mxPoint x="480" y="340" as="targetPoint" />
          </mxGeometry>
        </mxCell>
        <mxCell id="WVxVEHhtkP9Tz_GykqHv-53" value="Uses" style="edgeLabel;html=1;align=center;verticalAlign=middle;resizable=0;points=[];" vertex="1" connectable="0" parent="WVxVEHhtkP9Tz_GykqHv-47">
          <mxGeometry x="-0.6641" relative="1" as="geometry">
            <mxPoint as="offset" />
          </mxGeometry>
        </mxCell>
        <mxCell id="WVxVEHhtkP9Tz_GykqHv-48" value="" style="endArrow=classic;html=1;rounded=0;exitX=0;exitY=0;exitDx=0;exitDy=0;" edge="1" parent="1" source="WVxVEHhtkP9Tz_GykqHv-38">
          <mxGeometry width="50" height="50" relative="1" as="geometry">
            <mxPoint x="430" y="390" as="sourcePoint" />
            <mxPoint x="410" y="300" as="targetPoint" />
          </mxGeometry>
        </mxCell>
        <mxCell id="WVxVEHhtkP9Tz_GykqHv-55" value="Uses" style="edgeLabel;html=1;align=center;verticalAlign=middle;resizable=0;points=[];" vertex="1" connectable="0" parent="WVxVEHhtkP9Tz_GykqHv-48">
          <mxGeometry x="-0.1563" y="1" relative="1" as="geometry">
            <mxPoint as="offset" />
          </mxGeometry>
        </mxCell>
        <mxCell id="WVxVEHhtkP9Tz_GykqHv-49" value="" style="endArrow=classic;html=1;rounded=0;entryX=0.454;entryY=1.001;entryDx=0;entryDy=0;entryPerimeter=0;" edge="1" parent="1" target="WVxVEHhtkP9Tz_GykqHv-1">
          <mxGeometry width="50" height="50" relative="1" as="geometry">
            <mxPoint x="340" y="350" as="sourcePoint" />
            <mxPoint x="388" y="300" as="targetPoint" />
          </mxGeometry>
        </mxCell>
        <mxCell id="WVxVEHhtkP9Tz_GykqHv-56" value="Uses" style="edgeLabel;html=1;align=center;verticalAlign=middle;resizable=0;points=[];" vertex="1" connectable="0" parent="WVxVEHhtkP9Tz_GykqHv-49">
          <mxGeometry x="-0.3036" relative="1" as="geometry">
            <mxPoint as="offset" />
          </mxGeometry>
        </mxCell>
        <mxCell id="WVxVEHhtkP9Tz_GykqHv-50" value="" style="endArrow=classic;html=1;rounded=0;exitX=0.5;exitY=0;exitDx=0;exitDy=0;entryX=0.471;entryY=1.001;entryDx=0;entryDy=0;entryPerimeter=0;" edge="1" parent="1" source="WVxVEHhtkP9Tz_GykqHv-39" target="WVxVEHhtkP9Tz_GykqHv-1">
          <mxGeometry width="50" height="50" relative="1" as="geometry">
            <mxPoint x="470" y="400" as="sourcePoint" />
            <mxPoint x="420" y="450" as="targetPoint" />
          </mxGeometry>
        </mxCell>
        <mxCell id="WVxVEHhtkP9Tz_GykqHv-54" value="Uses" style="edgeLabel;html=1;align=center;verticalAlign=middle;resizable=0;points=[];" vertex="1" connectable="0" parent="WVxVEHhtkP9Tz_GykqHv-50">
          <mxGeometry x="0.4323" relative="1" as="geometry">
            <mxPoint as="offset" />
          </mxGeometry>
        </mxCell>
      </root>
    </mxGraphModel>
  </diagram>
</mxfile>
